HIERARCHY
ROOT Hips
{
	OFFSET 0.000000 0.000000 0.000000 
	CHANNELS 6 Xposition Yposition Zposition Yrotation Zrotation Xrotation 
	JOINT Lumbar
	{
		OFFSET 0.000000 0.000000 0.000000 
		CHANNELS 3 Zrotation Xrotation Yrotation
		JOINT Neck
		{
			OFFSET 0.000000 0.445665 0.000000 
			CHANNELS 3 Zrotation Xrotation Yrotation
			End Site
			{
				OFFSET 0.000000 0.227535 0.000000 
			}
		}
		JOINT RightShoulder
		{
			OFFSET 0.019635 0.377685 0.194865 
			CHANNELS 3 Zrotation Xrotation Yrotation
			JOINT RightElbow
			{
				OFFSET 0.000000 -0.243375 0.000000 
				CHANNELS 2 Zrotation Yrotation
				JOINT RightWrist
				{
					OFFSET 0.000000 -0.264825 0.000000 
					CHANNELS 2 Zrotation Xrotation
					End Site
					{
						OFFSET 0.006600 -0.176220 0.000990 
					}
				}
			}
		}
		JOINT LeftShoulder
		{
			OFFSET 0.019635 0.377685 -0.194865 
			CHANNELS 3 Zrotation Xrotation Yrotation
			JOINT LeftElbow
			{
				OFFSET 0.000000 -0.243375 0.000000 
				CHANNELS 2 Zrotation Yrotation
				JOINT LeftWrist
				{
					OFFSET 0.000000 -0.264825 0.000000 
					CHANNELS 2 Zrotation Xrotation
					End Site
					{
						OFFSET 0.006600 -0.176220 -0.000990 
					}
				}
			}
		}
	}
	JOINT RightHip
	{
		OFFSET 0.052140 -0.069960 0.075570 
		CHANNELS 3 Zrotation Xrotation Yrotation
		JOINT RightKnee
		{
			OFFSET 0.000000 -0.402270 0.000000 
			CHANNELS 1 Zrotation
			JOINT RightAnkle
			{
				OFFSET 0.000000 -0.404085 0.000000 
				CHANNELS 3 Zrotation Xrotation Yrotation
				End Site
				{
					OFFSET 0.204105 -0.089430 0.008415 
				}
			}
		}
	}
	JOINT LeftHip
	{
		OFFSET 0.052140 -0.069960 -0.075570 
		CHANNELS 3 Zrotation Xrotation Yrotation
		JOINT LeftKnee
		{
			OFFSET 0.000000 -0.402270 0.000000 
			CHANNELS 1 Zrotation
			JOINT LeftAnkle
			{
				OFFSET 0.000000 -0.404085 0.000000 
				CHANNELS 3 Zrotation Xrotation Yrotation
				End Site
				{
					OFFSET 0.204105 -0.089430 -0.008415 
				}
			}
		}
	}
}
MOTION
Frames: 10
Frame Time: 0.02
1.36625 -0.43916 0.31299 62.06192 5.43352 37.87791 20.69875 4.00924 -30.97613 -23.72675 -29.96582 -0.83079 -46.68605 -45.14883 -52.93976 62.87277 79.68522 -24.03415 -3.46242 39.11994 14.28072 -45.31742 65.04229 -118.29124 -21.39846 10.91073 62.39531 5.82502 -32.44886 -124.8316 -7.35395 -4.10321 -2.81281 103.38253 19.69069 12.10614 -121.12116 -10.1452 -0.95305 0.14683
1.3781 -0.45544 0.31332 63.88625 7.2427 36.27517 20.74377 2.58813 -32.10611 -24.65365 -31.77941 -0.83079 -47.97845 -41.02936 -55.60977 64.96058 79.35046 -21.81181 -3.30781 39.43008 10.70486 -46.02885 63.19393 -121.91162 -23.06846 11.3863 64.80894 7.44153 -34.13755 -125.01692 -5.55705 -3.5677 -1.97593 104.98109 19.88598 10.33541 -121.74362 -10.67971 -1.10095 0.07962
1.3901 -0.47135 0.31314 65.88213 9.06697 34.24168 20.58232 1.28532 -33.29511 -25.7429 -33.07653 -0.83079 -47.69482 -36.63162 -58.00229 66.15423 79.4738 -18.80768 -3.20867 39.77991 6.92379 -46.87135 61.15087 -126.08861 -25.48292 11.8431 67.52182 9.06663 -35.73481 -124.97245 -3.51422 -2.6748 -0.8129 106.93904 19.96498 8.34822 -122.35728 -11.25262 -1.2073 0.03011
1.40186 -0.48726 0.31318 67.76641 10.85079 32.45926 20.51831 -0.09288 -34.4001 -26.79037 -34.50908 -0.83079 -48.18657 -32.43014 -60.45759 67.7189 79.40842 -16.22061 -3.09731 40.08216 3.30022 -47.70436 59.2339 -129.86134 -27.51228 12.28408 70.05457 10.6409 -37.32522 -125.03612 -1.74361 -1.8305 0.22736 108.70922 20.09391 6.50003 -122.96088 -11.80302 -1.33063 -0.02633
1.41441 -0.50394 0.31322 69.79543 12.7788 30.43609 20.44075 -1.38875 -35.75066 -27.71002 -36.35288 -0.83079 -48.41114 -27.91993 -63.17684 69.4342 79.31033 -13.3939 -2.93839 40.52398 -0.60937 -48.34325 57.13244 -134.3194 -29.77357 12.83219 72.76416 12.40925 -39.10478 -125.10801 0.69852 -1.44922 1.16765 110.59339 20.23993 4.4722 -123.63188 -12.37644 -1.46134 -0.08685
1.42531 -0.51891 0.31316 71.56151 14.40949 28.81414 20.3401 -2.81894 -36.59771 -28.93048 -37.22236 -0.83079 -48.81908 -23.98706 -65.29011 70.62159 79.36731 -10.86657 -2.8879 40.67434 -3.96279 -49.4032 55.38944 -137.43101 -31.68117 13.14993 75.18108 13.77763 -40.47485 -125.09999 1.80868 -0.03992 2.38499 112.31974 20.32108 2.77137 -124.15689 -12.90969 -1.56695 -0.13486
1.43182 -0.52932 0.31285 72.57378 15.21008 28.4144 20.24643 -4.71841 -36.09683 -30.95513 -35.50456 -0.83079 -50.18745 -21.78197 -65.68875 70.58533 79.77425 -9.43309 -3.13642 40.06459 -5.77258 -51.69 54.54988 -137.11868 -32.86421 12.85005 76.70513 14.03025 -40.7313 -124.91493 -0.89673 4.30216 4.35902 113.54243 20.24959 2.01265 -124.2856 -13.33143 -1.61491 -0.15329
1.43663 -0.538 0.31247 73.31266 15.71099 28.43259 20.13301 -6.74386 -35.07852 -33.27249 -32.83004 -0.83079 -51.78548 -20.16019 -65.50312 70.04617 80.30752 -8.31324 -3.48919 39.14829 -7.00611 -54.37685 54.10188 -135.36501 -33.59426 12.31631 77.92794 13.88211 -40.58175 -124.65587 -4.93771 9.63322 6.58731 114.5892 20.11676 1.59384 -124.2655 -13.70984 -1.63898 -0.15977
1.4421 -0.54743 0.31217 74.16723 16.35296 28.25502 20.0153 -8.6657 -34.2576 -35.44762 -30.60851 -0.83079 -53.23674 -18.22856 -65.66015 69.72676 80.75546 -6.996 -3.78424 38.33567 -8.47416 -56.8163 53.56806 -133.96958 -34.23617 11.8796 79.2971 13.92412 -40.62377 -124.43574 -8.31551 14.39144 8.65201 115.70161 20.01225 1.0297 -124.30971 -14.10192 -1.673 -0.17131
1.44805 -0.55699 0.31167 75.064 16.9772 28.08773 19.94599 -10.77904 -33.59066 -37.6718 -28.28853 -0.83079 -54.81114 -16.4672 -65.4963 69.41179 81.34228 -5.87691 -4.12347 37.67636 -10.06513 -59.53753 52.65 -133.78752 -36.10809 11.47978 80.63557 13.93303 -40.63306 -124.18687 -11.91834 19.68006 10.93029 116.88569 19.90079 0.42013 -124.36876 -14.51993 -1.70899 -0.18354
